<svg width="72" height="68" viewBox="0 0 72 68" fill="none" xmlns="http://www.w3.org/2000/svg">
<g clip-path="url(#clip0_206_70)">
<path d="M50.2311 33.4962L49.7248 32.6287L32.7657 27.116L32.2876 27.6756L31.5564 27.8435L16.4816 62.8789L16.6785 63.9423L52.9873 48.6913L53.2967 48.0756L50.7654 34.0839L50.2311 33.4962Z" fill="#78758C"/>
<path d="M16.6785 63.9423L32.2875 27.6757L0.225706 17.2659L16.6785 63.9423Z" fill="#A3EDBA"/>
<path d="M44.1842 0.0839844L32.2876 27.6758L50.231 33.4964L50.3153 33.2725L44.2967 0.335837L44.1842 0.0839844Z" fill="#8087E8"/>
<path d="M50.231 33.4964L52.9872 48.6915L54.2528 48.6635L71.4368 41.2479L72.1962 40.6042L71.2962 39.8487L51.0747 33.0767L50.231 33.4964Z" fill="#30426B"/>
<path d="M52.9872 48.6916L56.5028 68.1123L72.1963 40.6043L52.9872 48.6916ZM44.1842 0.0839844L50.231 33.4965L72.1963 40.6043L44.1842 0.0839844Z" fill="#6699A1"/>
</g>
<defs>
<clipPath id="clip0_206_70">
<rect width="72" height="68" fill="white"/>
</clipPath>
</defs>
</svg>
