<svg width="141" height="75" viewBox="0 0 141 75" fill="none" xmlns="http://www.w3.org/2000/svg">
<path d="M33.27 19.3807H59.8639V21.2272H35.7078V35.1243H58.4234V36.9707H35.7078V52.2284H60.1409V54.0748H33.27V19.3807ZM62.2463 19.3807H65.0719L77.5931 34.6384L90.3914 19.3807L107.799 0L79.1998 36.2419L93.9373 54.0748H91.0009L77.5931 37.8454L64.13 54.0748H61.249L76.0972 36.2419L62.2463 19.3807ZM94.9899 21.2272V19.3807H125.296V21.2272H111.334V54.0748H108.896V21.2272H94.9899Z" fill="white"/>
<path d="M0 19.3809H3.04721L45.0665 74.3087L27.7019 54.075L2.54858 22.0048L2.43777 54.075H0V19.3809Z" fill="white"/>
<path d="M125.05 51.671C125.554 51.671 125.922 51.3339 125.922 50.8982C125.922 50.4626 125.554 50.1255 125.05 50.1255C124.552 50.1255 124.179 50.4626 124.179 50.8982C124.179 51.3339 124.552 51.671 125.05 51.671ZM127.446 49.638C127.446 50.9242 128.507 51.7643 130.055 51.7643C131.703 51.7643 132.699 50.8982 132.699 49.3942V44.099H131.371V49.389C131.371 50.224 130.891 50.67 130.043 50.67C129.284 50.67 128.768 50.2551 128.75 49.638H127.446ZM134.436 49.5705C134.531 50.9086 135.806 51.7643 137.703 51.7643C139.731 51.7643 141 50.8671 141 49.4357C141 48.3103 140.277 47.6879 138.522 47.3301L137.579 47.1278C136.464 46.8996 136.014 46.5936 136.014 46.0594C136.014 45.3852 136.713 44.9444 137.763 44.9444C138.759 44.9444 139.447 45.3748 139.571 46.0646H140.864C140.787 44.8043 139.518 43.9175 137.78 43.9175C135.913 43.9175 134.668 44.8043 134.668 46.1372C134.668 47.2367 135.373 47.8902 136.921 48.2065L138.024 48.4399C139.156 48.6733 139.654 49.0156 139.654 49.5861C139.654 50.25 138.871 50.7323 137.804 50.7323C136.66 50.7323 135.865 50.2811 135.753 49.5705H134.436Z" fill="white"/>
</svg>
