<svg width="68" height="69" viewBox="0 0 68 69" fill="none" xmlns="http://www.w3.org/2000/svg">
<path fill-rule="evenodd" clip-rule="evenodd" d="M45.2353 46.2913V24.2131C45.2352 23.8356 45.0852 23.4735 44.8182 23.2065C44.5512 22.9396 44.1891 22.7896 43.8116 22.7896H21.7592V2.76202e-08H66.576C66.763 -3.68035e-05 66.9481 0.0367621 67.1209 0.108295C67.2937 0.179828 67.4506 0.284694 67.5829 0.416904C67.7151 0.549115 67.82 0.706079 67.8916 0.878833C67.9631 1.05159 68 1.23675 68 1.42374V46.2913H45.2353Z" fill="white"/>
<path opacity="0.405" fill-rule="evenodd" clip-rule="evenodd" d="M21.7592 0V22.7896H0.711818C0.571057 22.7896 0.433466 22.7478 0.316429 22.6696C0.199393 22.5914 0.108162 22.4803 0.054264 22.3503C0.000366194 22.2202 -0.0137799 22.0771 0.0136129 21.9391C0.0410058 21.801 0.108708 21.6742 0.208167 21.5745L21.7592 0ZM45.2353 67.3608V46.2913H68L46.4507 67.8639C46.3511 67.9634 46.2243 68.0312 46.0862 68.0586C45.9482 68.0861 45.805 68.072 45.675 68.0182C45.5449 67.9644 45.4337 67.8732 45.3555 67.7562C45.2772 67.6392 45.2354 67.5016 45.2353 67.3608ZM21.7592 22.7896H44.5233C44.7121 22.7896 44.8931 22.8646 45.0266 22.9981C45.1602 23.1316 45.2352 23.3126 45.2353 23.5014V46.2913H23.1829C22.9959 46.2913 22.8108 46.2545 22.6381 46.1829C22.4653 46.1114 22.3084 46.0065 22.1762 45.8743C22.044 45.7421 21.9391 45.5851 21.8675 45.4124C21.796 45.2397 21.7592 45.0545 21.7592 44.8676V22.7896Z" fill="white"/>
</svg>
