<svg width="119" height="64" viewBox="0 0 119 64" fill="none" xmlns="http://www.w3.org/2000/svg">
<path d="M80.3944 0L80.0225 2.3887C79.4474 6.91561 79.6556 8.21076 81.2324 9.89079L82.7546 11.4425L81.1778 20.1054C80.2357 25.2738 79.0805 29.6052 78.3466 31.0286C77.7169 32.2566 76.9831 34.0649 76.8244 35.0363C76.5616 36.197 75.6691 37.3639 74.3056 38.3963C73.1007 39.2394 70.7356 41.4998 69.0597 43.3142C67.7209 44.7988 66.7987 45.709 66.2979 46.1L64.6616 47.6945C64.136 48.7331 63.8385 49.5701 63.7245 50.2054C63.6105 50.8591 63.6749 51.2929 63.8435 51.6105C64.0071 51.916 64.2897 52.1298 64.6765 52.2642C65.1343 52.3964 65.6056 52.4438 66.0748 52.4047C67.1362 52.3154 68.1867 52.086 69.2084 51.7205C69.5555 51.6044 69.8282 51.4945 70.0662 51.3967C70.4331 50.8408 71.281 49.79 72.7834 47.9633C76.7699 43.1187 78.2921 40.4674 76.7203 41.1821C76.1402 41.4387 76.403 40.7911 77.3996 39.496C79.5019 36.9729 80.7068 33.1607 83.2256 21.205C85.2189 11.7663 85.2189 11.6319 86.6865 11.6319C87.3758 11.6319 89.3244 11.7785 89.3244 11.7785V0H84.852H80.3944ZM99.4295 19.3356C99.1121 19.3356 98.5865 19.9221 98.2742 20.5697C97.699 21.7304 98.3783 22.4391 107.036 29.0981C112.177 33.1119 116.323 36.533 116.218 36.7957C116.114 36.9851 111.915 40.3513 106.882 44.2306C97.7486 51.2073 97.699 51.2745 98.537 52.698C99.5881 54.378 98.537 54.9584 110.392 45.8434L119 39.0561V33.9488L109.396 26.6422C104.204 22.6346 99.6923 19.4028 99.4295 19.3356ZM19.6747 20.0504C19.4119 20.0504 14.8998 23.3494 9.70842 27.2898L0 34.5964V39.7037L9.65388 47.1386C15.0089 51.2073 19.521 54.5735 19.7292 54.5735C19.9375 54.5735 20.3589 53.987 20.7804 53.2783C21.4101 52.0504 20.8795 51.5311 12.014 44.6155C3.57 38.0848 2.6775 37.1806 3.52042 36.4719C4.046 36.0199 8.0325 32.9775 12.3363 29.6846C22.1489 22.2497 21.6233 22.7629 20.8349 21.2111C20.5225 20.5697 19.992 19.9893 19.6796 20.0504H19.6747ZM62.7328 20.1909C61.285 20.1787 58.1712 22.8973 48.8495 32.2749C48.4479 33.454 48.4132 34.2665 48.5966 34.7919C48.7156 35.1523 48.9338 35.4028 49.2363 35.5861C49.5338 35.7694 49.9205 35.8793 50.3469 35.9221C51.1948 36.0137 52.1964 35.8488 53.0046 35.6533L53.55 35.5006C53.7367 35.1921 53.9818 34.9446 54.264 34.7797C54.8392 34.3887 57.2539 31.6762 59.6686 28.7682C63.9179 23.4654 64.9145 21.0706 63.184 20.2948C63.0421 20.2252 62.8906 20.1899 62.7378 20.1909H62.7328ZM73.6213 23.8748C72.347 23.9175 70.0513 25.7381 66.1194 29.6052C64.146 31.5785 62.8965 32.6415 62.2271 32.8614L59.6289 35.3906C58.6521 37.5899 58.5083 38.9523 58.7662 39.7037C58.8307 39.8891 58.9244 40.0568 59.0418 40.1973C59.1593 40.3379 59.2981 40.4483 59.4504 40.5223C59.8292 40.7066 60.2332 40.7999 60.6404 40.7972C61.6136 40.7845 62.581 40.6098 63.5163 40.278C64.0037 40.1168 64.4851 39.9293 64.9591 39.7159L65.1029 39.6426L65.3657 39.4715C65.8615 38.6835 67.002 37.1989 68.43 35.4883C72.942 30.1245 75.2477 26.3123 74.7766 24.8889C74.5634 24.1985 74.1965 23.8503 73.6213 23.8748ZM61.6023 30.4727C61.2354 30.5216 60.4123 31.3035 58.9298 32.9042C56.7878 35.2379 54.4524 36.5819 53.6442 35.9832C53.4564 36.0355 53.2679 36.0844 53.079 36.1298C52.2559 36.3314 51.2295 36.4964 50.3122 36.4047C49.88 36.3725 49.4564 36.242 49.0627 36.0199C48.6914 35.8107 48.3951 35.4412 48.2297 34.9813C48.0463 34.4315 48.0463 33.7472 48.2545 32.8736L45.0316 36.1359L37.7379 43.5708V55.6243L61.637 32.4276C61.6324 32.1737 61.6592 31.9203 61.7164 31.6762C61.8998 30.8576 61.8899 30.4422 61.6023 30.4788V30.4727ZM71.8859 34.3765C71.524 34.3765 70.919 35.0057 69.9522 36.2703C68.6382 37.9992 66.5706 39.6732 65.4748 40.0153L65.3062 40.1252C65.1263 40.2168 64.9444 40.3023 64.7608 40.3818C64.4633 40.504 64.0765 40.6506 63.6303 40.7972C62.7378 41.0966 61.6271 41.3715 60.6355 41.341C60.1679 41.3402 59.7049 41.2282 59.2719 41.0111C58.8638 40.8038 58.5367 40.4096 58.3596 39.9114C58.072 39.0622 58.186 37.8709 58.8158 36.1787L37.7329 56.6384V64H46.9951L66.64 44.9882C67.1507 44.2917 67.9193 43.3387 68.9555 42.1474C71.7322 38.9767 72.3619 37.8832 72.3619 36.2642C72.3619 35.0057 72.2479 34.3704 71.8859 34.3704V34.3765ZM76.5616 46.2894L74.8808 48.3543C73.9387 49.454 72.2578 50.8102 71.1075 51.3906L70.8794 51.5128L70.8645 51.5433L70.8149 51.6044C70.7703 51.6472 70.7505 51.6533 70.7158 51.6716C70.2565 51.8858 69.79 52.0753 69.3175 52.2398C68.2669 52.6166 67.1863 52.8521 66.0946 52.9423C65.5784 52.9831 65.0602 52.9275 64.5575 52.7774C64.1213 52.6591 63.7361 52.3456 63.4766 51.8977C63.2386 51.4456 63.1692 50.8408 63.303 50.0955C63.4095 49.5648 63.5677 49.052 63.7741 48.5681L47.9223 64H69.0051L71.524 60.4444C74.9849 55.4715 76.5616 51.916 76.5616 48.8736V46.2894Z" fill="white"/>
</svg>
