<?xml version="1.0" standalone="no"?>
<!DOCTYPE svg PUBLIC "-//W3C//DTD SVG 20010904//EN"
 "http://www.w3.org/TR/2001/REC-SVG-20010904/DTD/svg10.dtd">
<svg version="1.0" xmlns="http://www.w3.org/2000/svg"
 width="1509.000000pt" height="1509.000000pt" viewBox="0 0 1509.000000 1509.000000"
 preserveAspectRatio="xMidYMid meet">
<metadata>
Created by potrace 1.14, written by Peter Selinger 2001-2017
</metadata>
<g transform="translate(0.000000,1509.000000) scale(0.100000,-0.100000)"
fill="#000000" stroke="none">
<path d="M3189 15046 c-2 -2 -44 -7 -94 -10 -49 -4 -98 -9 -110 -11 -11 -2
-40 -7 -65 -10 -25 -3 -55 -7 -66 -9 -12 -2 -37 -7 -55 -10 -28 -4 -155 -31
-246 -51 -12 -3 -87 -25 -165 -50 -537 -166 -1030 -469 -1419 -870 -115 -119
-132 -138 -198 -220 -31 -38 -58 -72 -62 -75 -3 -3 -37 -50 -76 -105 -351
-496 -564 -1069 -620 -1665 -10 -111 -10 -8710 0 -8814 9 -89 11 -110 32 -246
20 -129 24 -150 35 -185 5 -16 12 -41 15 -55 15 -74 26 -114 53 -205 17 -55
43 -131 57 -170 15 -38 31 -83 37 -100 7 -16 17 -41 25 -55 7 -14 13 -29 13
-33 0 -9 124 -260 157 -317 198 -346 429 -627 755 -917 36 -32 268 -208 304
-230 10 -7 60 -38 109 -70 102 -65 420 -228 510 -262 275 -103 320 -117 580
-177 78 -18 282 -49 404 -61 102 -11 8783 -10 8893 0 49 5 96 10 105 11 10 2
38 7 63 10 25 3 55 8 66 10 12 2 38 7 57 10 199 32 544 134 713 211 30 14 57
25 60 25 11 0 204 97 293 148 858 485 1469 1324 1661 2276 15 78 31 166 35
196 4 30 9 63 10 72 2 9 7 57 12 105 10 112 11 8699 0 8813 -69 758 -375 1447
-892 2008 -78 85 -156 162 -229 225 -33 29 -67 59 -75 67 -66 63 -315 240
-453 324 -327 196 -794 369 -1153 426 -321 51 -50 48 -4716 49 -2396 1 -4358
-1 -4360 -3z"/>
</g>
</svg>
